<svg width="21" height="21" viewBox="0 0 21 21" fill="none" xmlns="http://www.w3.org/2000/svg">
<mask id="mask0_102_346" style="mask-type:alpha" maskUnits="userSpaceOnUse" x="-4" y="-4" width="29" height="29">
<rect x="24.5244" y="-3.46482" width="27.9577" height="27.9577" transform="rotate(90.1544 24.5244 -3.46482)" fill="#D9D9D9"/>
</mask>
<g mask="url(#mask0_102_346)">
<path d="M4.57375e-05 19.3013L7.35869 11.9822C6.8943 11.3985 6.52722 10.7277 6.25745 9.96975C5.98768 9.21184 5.85395 8.40575 5.85625 7.55149C5.86195 5.43525 6.59969 3.64619 8.06948 2.18431C9.53926 0.722429 11.3323 -0.00566077 13.4485 4.17423e-05C15.5647 0.00574425 17.3538 0.743487 18.8157 2.21327C20.2776 3.68305 21.0056 5.47606 20.9999 7.5923C20.9942 9.70853 20.2565 11.4976 18.7867 12.9595C17.3169 14.4214 15.5239 15.1494 13.4077 15.1437C12.5534 15.1414 11.7481 15.0034 10.9916 14.7295C10.2352 14.4557 9.56635 14.085 8.98516 13.6174L1.62651 20.9365L4.57375e-05 19.3013ZM8.18605 7.55777C8.18212 9.01389 8.68843 10.253 9.70497 11.275C10.7215 12.297 11.9578 12.81 13.414 12.8139C14.8701 12.8179 16.1092 12.3116 17.1312 11.295C18.1532 10.2785 18.6662 9.04214 18.6701 7.58602C18.6741 6.12989 18.1678 4.89081 17.1512 3.86878C16.1347 2.84674 14.8983 2.33377 13.4422 2.32984C11.9861 2.32592 10.747 2.83223 9.72499 3.84877C8.70295 4.86531 8.18997 6.10164 8.18605 7.55777Z" fill="black"/>
</g>
</svg>
