<svg width="19" height="15" viewBox="0 0 19 15" fill="none" xmlns="http://www.w3.org/2000/svg">
<path d="M1.875 15C1.35938 15 0.917969 14.8164 0.550782 14.4492C0.183594 14.082 0 13.6406 0 13.125V1.875C0 1.35938 0.183594 0.917969 0.550782 0.550782C0.917969 0.183594 1.35938 0 1.875 0H16.875C17.3906 0 17.832 0.183594 18.1992 0.550782C18.5664 0.917969 18.75 1.35938 18.75 1.875V13.125C18.75 13.6406 18.5664 14.082 18.1992 14.4492C17.832 14.8164 17.3906 15 16.875 15H1.875ZM9.37501 8.43751L1.875 3.75V13.125H16.875V3.75L9.37501 8.43751ZM9.37501 6.5625L16.875 1.875H1.875L9.37501 6.5625ZM1.875 3.75V1.875V13.125V3.75Z" fill="white"/>
</svg>
