<svg width="26" height="25" viewBox="0 0 26 25" fill="none" xmlns="http://www.w3.org/2000/svg">
<mask id="mask0_102_352" style="mask-type:alpha" maskUnits="userSpaceOnUse" x="-3" y="-3" width="31" height="31">
<rect x="-2.4375" y="-2.5" width="30" height="30" fill="#D9D9D9"/>
</mask>
<g mask="url(#mask0_102_352)">
<path d="M9.125 25L8.625 21C8.35417 20.8958 8.09896 20.7708 7.85938 20.625C7.61979 20.4792 7.38542 20.3229 7.15625 20.1562L3.4375 21.7188L0 15.7812L3.21875 13.3438C3.19792 13.1979 3.1875 13.0573 3.1875 12.9219V12.0781C3.1875 11.9427 3.19792 11.8021 3.21875 11.6562L0 9.21875L3.4375 3.28125L7.15625 4.84375C7.38542 4.67708 7.625 4.52083 7.875 4.375C8.125 4.22917 8.375 4.10417 8.625 4L9.125 0H16L16.5 4C16.7708 4.10417 17.026 4.22917 17.2656 4.375C17.5052 4.52083 17.7396 4.67708 17.9688 4.84375L21.6875 3.28125L25.125 9.21875L21.9062 11.6562C21.9271 11.8021 21.9375 11.9427 21.9375 12.0781V12.9219C21.9375 13.0573 21.9167 13.1979 21.875 13.3438L25.0938 15.7812L21.6562 21.7188L17.9688 20.1562C17.7396 20.3229 17.5 20.4792 17.25 20.625C17 20.7708 16.75 20.8958 16.5 21L16 25H9.125ZM12.625 16.875C13.8333 16.875 14.8646 16.4479 15.7188 15.5938C16.5729 14.7396 17 13.7083 17 12.5C17 11.2917 16.5729 10.2604 15.7188 9.40625C14.8646 8.55208 13.8333 8.125 12.625 8.125C11.3958 8.125 10.3594 8.55208 9.51562 9.40625C8.67188 10.2604 8.25 11.2917 8.25 12.5C8.25 13.7083 8.67188 14.7396 9.51562 15.5938C10.3594 16.4479 11.3958 16.875 12.625 16.875ZM12.625 14.375C12.1042 14.375 11.6615 14.1927 11.2969 13.8281C10.9323 13.4635 10.75 13.0208 10.75 12.5C10.75 11.9792 10.9323 11.5365 11.2969 11.1719C11.6615 10.8073 12.1042 10.625 12.625 10.625C13.1458 10.625 13.5885 10.8073 13.9531 11.1719C14.3177 11.5365 14.5 11.9792 14.5 12.5C14.5 13.0208 14.3177 13.4635 13.9531 13.8281C13.5885 14.1927 13.1458 14.375 12.625 14.375ZM11.3125 22.5H13.7813L14.2188 19.1875C14.8646 19.0208 15.4635 18.776 16.0156 18.4531C16.5677 18.1302 17.0729 17.7396 17.5312 17.2812L20.625 18.5625L21.8438 16.4375L19.1562 14.4063C19.2604 14.1146 19.3333 13.8073 19.375 13.4844C19.4167 13.1615 19.4375 12.8333 19.4375 12.5C19.4375 12.1667 19.4167 11.8385 19.375 11.5156C19.3333 11.1927 19.2604 10.8854 19.1562 10.5938L21.8438 8.5625L20.625 6.4375L17.5312 7.75C17.0729 7.27083 16.5677 6.86979 16.0156 6.54688C15.4635 6.22396 14.8646 5.97917 14.2188 5.8125L13.8125 2.5H11.3438L10.9062 5.8125C10.2604 5.97917 9.66146 6.22396 9.10938 6.54688C8.55729 6.86979 8.05208 7.26042 7.59375 7.71875L4.5 6.4375L3.28125 8.5625L5.96875 10.5625C5.86458 10.875 5.79167 11.1875 5.75 11.5C5.70833 11.8125 5.6875 12.1458 5.6875 12.5C5.6875 12.8333 5.70833 13.1563 5.75 13.4688C5.79167 13.7813 5.86458 14.0938 5.96875 14.4063L3.28125 16.4375L4.5 18.5625L7.59375 17.25C8.05208 17.7292 8.55729 18.1302 9.10938 18.4531C9.66146 18.776 10.2604 19.0208 10.9062 19.1875L11.3125 22.5Z" fill="white"/>
</g>
</svg>
