<svg width="14" height="24" viewBox="0 0 14 24" fill="none" xmlns="http://www.w3.org/2000/svg">
<mask id="mask0_102_355" style="mask-type:alpha" maskUnits="userSpaceOnUse" x="-9" y="-4" width="32" height="31">
<rect x="-8.27368" y="-3.78947" width="30.3158" height="30.3158" fill="#D9D9D9"/>
</mask>
<g mask="url(#mask0_102_355)">
<path d="M5.11579 16.4211C5.11579 14.7158 5.26842 13.4895 5.57368 12.7421C5.87895 11.9947 6.52632 11.1789 7.51579 10.2947C8.37895 9.53684 9.03684 8.87895 9.48947 8.32105C9.94211 7.76316 10.1684 7.12632 10.1684 6.41053C10.1684 5.54737 9.87895 4.83158 9.3 4.26316C8.72105 3.69474 7.91579 3.41053 6.88421 3.41053C5.81053 3.41053 4.99474 3.73684 4.43684 4.38947C3.87895 5.04211 3.48421 5.70526 3.25263 6.37895L0 4.98947C0.442105 3.64211 1.25263 2.47368 2.43158 1.48421C3.61053 0.494737 5.09474 0 6.88421 0C9.09474 0 10.7947 0.615789 11.9842 1.84737C13.1737 3.07895 13.7684 4.55789 13.7684 6.28421C13.7684 7.33684 13.5421 8.23684 13.0895 8.98421C12.6368 9.73158 11.9263 10.5789 10.9579 11.5263C9.92632 12.5158 9.3 13.2684 9.07895 13.7842C8.8579 14.3 8.74737 15.1789 8.74737 16.4211H5.11579ZM6.88421 24C6.18947 24 5.59474 23.7526 5.1 23.2579C4.60526 22.7632 4.3579 22.1684 4.3579 21.4737C4.3579 20.7789 4.60526 20.1842 5.1 19.6895C5.59474 19.1947 6.18947 18.9474 6.88421 18.9474C7.57895 18.9474 8.17368 19.1947 8.66842 19.6895C9.16316 20.1842 9.41053 20.7789 9.41053 21.4737C9.41053 22.1684 9.16316 22.7632 8.66842 23.2579C8.17368 23.7526 7.57895 24 6.88421 24Z" fill="white"/>
</g>
</svg>
