<svg width="22" height="25" viewBox="0 0 22 25" fill="none" xmlns="http://www.w3.org/2000/svg">
<mask id="mask0_102_368" style="mask-type:alpha" maskUnits="userSpaceOnUse" x="-6" y="-2" width="32" height="32">
<rect x="-5.04626" y="-1.05949" width="30.5145" height="30.5145" fill="#D9D9D9"/>
</mask>
<g mask="url(#mask0_102_368)">
<path d="M19.6799 23.75C19.1509 23.75 18.7012 23.5677 18.3309 23.2031C17.9606 22.8386 17.7754 22.3958 17.7754 21.875C17.7754 21.3542 17.9606 20.9115 18.3309 20.5469C18.7012 20.1823 19.1509 20 19.6799 20C20.209 20 20.6586 20.1823 21.029 20.5469C21.3993 20.9115 21.5844 21.3542 21.5844 21.875C21.5844 22.3958 21.3993 22.8386 21.029 23.2031C20.6586 23.5677 20.209 23.75 19.6799 23.75ZM7.61804 25C5.50192 25 3.70321 24.7552 2.22193 24.2656C0.740643 23.7761 0 23.1875 0 22.5C0 22.0208 0.34916 21.5938 1.04748 21.2188C1.7458 20.8438 2.66631 20.5417 3.80902 20.3125V22.5H6.34837V0L16.5058 4.875L8.88771 8.75V20.0625C10.7076 20.1667 12.2206 20.4427 13.4268 20.8906C14.633 21.3386 15.2361 21.875 15.2361 22.5C15.2361 23.1875 14.4954 23.7761 13.0142 24.2656C11.5329 24.7552 9.73416 25 7.61804 25Z" fill="white"/>
</g>
</svg>
