<svg width="16" height="13" viewBox="0 0 16 13" fill="none" xmlns="http://www.w3.org/2000/svg">
<g opacity="0.8">
<path d="M14.364 4.30056C14.1764 4.14824 13.9221 4.06267 13.657 4.06267C13.3918 4.06267 13.1375 4.14824 12.95 4.30056L7.99996 8.32243L3.04996 4.30056C2.86136 4.15255 2.60876 4.07066 2.34656 4.07251C2.08437 4.07436 1.83356 4.15981 1.64815 4.31045C1.46274 4.4611 1.35757 4.66488 1.35529 4.87792C1.35301 5.09095 1.45381 5.29619 1.63597 5.44943L7.29296 10.0457C7.48049 10.1981 7.7348 10.2836 7.99996 10.2836C8.26512 10.2836 8.51943 10.1981 8.70696 10.0457L14.364 5.44943C14.5514 5.29707 14.6567 5.09044 14.6567 4.87499C14.6567 4.65955 14.5514 4.45292 14.364 4.30056Z" fill="black"/>
</g>
</svg>
