<svg width="106" height="32" viewBox="0 0 106 32" fill="none" xmlns="http://www.w3.org/2000/svg">
<rect x="0.75" y="0.75" width="29.0241" height="30.5" stroke="black" stroke-width="1.5"/>
<mask id="mask0_145_313" style="mask-type:alpha" maskUnits="userSpaceOnUse" x="3" y="3" width="24" height="24">
<rect x="3" y="3" width="24" height="24" fill="#D9D9D9"/>
</mask>
<g mask="url(#mask0_145_313)">
<path d="M8 24C7.45 24 6.97917 23.8042 6.5875 23.4125C6.19583 23.0208 6 22.55 6 22V8C6 7.45 6.19583 6.97917 6.5875 6.5875C6.97917 6.19583 7.45 6 8 6H22C22.55 6 23.0208 6.19583 23.4125 6.5875C23.8042 6.97917 24 7.45 24 8V16.35C23.6833 16.2333 23.3583 16.1458 23.025 16.0875C22.6917 16.0292 22.35 16 22 16V8H8V22H16C16 22.35 16.0292 22.6917 16.0875 23.025C16.1458 23.3583 16.2333 23.6833 16.35 24H8ZM22 26L20.6 24.6L22.175 23H18V21H22.175L20.6 19.4L22 18L26 22L22 26ZM14 20H16V16H20V14H16V10H14V14H10V16H14V20Z" fill="#1C1B1F"/>
</g>
<rect x="75.75" y="0.75" width="29.0241" height="30.5" stroke="black" stroke-width="1.5"/>
<mask id="mask1_145_313" style="mask-type:alpha" maskUnits="userSpaceOnUse" x="78" y="4" width="24" height="24">
<rect x="78" y="4" width="24" height="24" fill="#D9D9D9"/>
</mask>
<g mask="url(#mask1_145_313)">
<path d="M92.4 14.5L91 13.1L93.6 10.5L91 7.9L92.4 6.5L95 9.1L97.6 6.5L99 7.9L96.4 10.5L99 13.1L97.6 14.5L95 11.9L92.4 14.5ZM80 15L85 6L90 15H80ZM85 25C83.9 25 82.9583 24.6083 82.175 23.825C81.3917 23.0417 81 22.1 81 21C81 19.8833 81.3917 18.9375 82.175 18.1625C82.9583 17.3875 83.9 17 85 17C86.1 17 87.0417 17.3917 87.825 18.175C88.6083 18.9583 89 19.9 89 21C89 22.1 88.6083 23.0417 87.825 23.825C87.0417 24.6083 86.1 25 85 25ZM85 23C85.55 23 86.0208 22.8042 86.4125 22.4125C86.8042 22.0208 87 21.55 87 21C87 20.45 86.8042 19.9792 86.4125 19.5875C86.0208 19.1958 85.55 19 85 19C84.45 19 83.9792 19.1958 83.5875 19.5875C83.1958 19.9792 83 20.45 83 21C83 21.55 83.1958 22.0208 83.5875 22.4125C83.9792 22.8042 84.45 23 85 23ZM83.4 13H86.6L85 10.125L83.4 13ZM91 25V17H99V25H91ZM93 23H97V19H93V23Z" fill="#1C1B1F"/>
</g>
</svg>
