<svg width="106" height="164" viewBox="0 0 106 164" fill="none" xmlns="http://www.w3.org/2000/svg">
<rect x="0.75" y="0.75" width="29.0241" height="30.5" stroke="black" stroke-width="1.5"/>
<mask id="mask0_145_336" style="mask-type:alpha" maskUnits="userSpaceOnUse" x="3" y="3" width="24" height="24">
<rect x="3" y="3" width="24" height="24" fill="#D9D9D9"/>
</mask>
<g mask="url(#mask0_145_336)">
<path d="M8 24C7.45 24 6.97917 23.8042 6.5875 23.4125C6.19583 23.0208 6 22.55 6 22V8C6 7.45 6.19583 6.97917 6.5875 6.5875C6.97917 6.19583 7.45 6 8 6H22C22.55 6 23.0208 6.19583 23.4125 6.5875C23.8042 6.97917 24 7.45 24 8V16.35C23.6833 16.2333 23.3583 16.1458 23.025 16.0875C22.6917 16.0292 22.35 16 22 16V8H8V22H16C16 22.35 16.0292 22.6917 16.0875 23.025C16.1458 23.3583 16.2333 23.6833 16.35 24H8ZM22 26L20.6 24.6L22.175 23H18V21H22.175L20.6 19.4L22 18L26 22L22 26ZM14 20H16V16H20V14H16V10H14V14H10V16H14V20Z" fill="#1C1B1F"/>
</g>
<rect x="75.75" y="0.75" width="29.0241" height="30.5" stroke="black" stroke-width="1.5"/>
<mask id="mask1_145_336" style="mask-type:alpha" maskUnits="userSpaceOnUse" x="78" y="4" width="24" height="24">
<rect x="78" y="4" width="24" height="24" fill="#D9D9D9"/>
</mask>
<g mask="url(#mask1_145_336)">
<path d="M92.4 14.5L91 13.1L93.6 10.5L91 7.9L92.4 6.5L95 9.1L97.6 6.5L99 7.9L96.4 10.5L99 13.1L97.6 14.5L95 11.9L92.4 14.5ZM80 15L85 6L90 15H80ZM85 25C83.9 25 82.9583 24.6083 82.175 23.825C81.3917 23.0417 81 22.1 81 21C81 19.8833 81.3917 18.9375 82.175 18.1625C82.9583 17.3875 83.9 17 85 17C86.1 17 87.0417 17.3917 87.825 18.175C88.6083 18.9583 89 19.9 89 21C89 22.1 88.6083 23.0417 87.825 23.825C87.0417 24.6083 86.1 25 85 25ZM85 23C85.55 23 86.0208 22.8042 86.4125 22.4125C86.8042 22.0208 87 21.55 87 21C87 20.45 86.8042 19.9792 86.4125 19.5875C86.0208 19.1958 85.55 19 85 19C84.45 19 83.9792 19.1958 83.5875 19.5875C83.1958 19.9792 83 20.45 83 21C83 21.55 83.1958 22.0208 83.5875 22.4125C83.9792 22.8042 84.45 23 85 23ZM83.4 13H86.6L85 10.125L83.4 13ZM91 25V17H99V25H91ZM93 23H97V19H93V23Z" fill="#1C1B1F"/>
</g>
<rect x="0.75" y="132.75" width="29.0241" height="30.5" stroke="black" stroke-width="1.5"/>
<mask id="mask2_145_336" style="mask-type:alpha" maskUnits="userSpaceOnUse" x="3" y="135" width="24" height="24">
<rect x="3" y="135" width="24" height="24" fill="#D9D9D9"/>
</mask>
<g mask="url(#mask2_145_336)">
<path d="M8 156C7.45 156 6.97917 155.804 6.5875 155.413C6.19583 155.021 6 154.55 6 154V140C6 139.45 6.19583 138.979 6.5875 138.588C6.97917 138.196 7.45 138 8 138H22C22.55 138 23.0208 138.196 23.4125 138.588C23.8042 138.979 24 139.45 24 140V148.35C23.6833 148.233 23.3583 148.146 23.025 148.088C22.6917 148.029 22.35 148 22 148V140H8V154H16C16 154.35 16.0292 154.692 16.0875 155.025C16.1458 155.358 16.2333 155.683 16.35 156H8ZM22 158L20.6 156.6L22.175 155H18V153H22.175L20.6 151.4L22 150L26 154L22 158ZM14 152H16V148H20V146H16V142H14V146H10V148H14V152Z" fill="#1C1B1F"/>
</g>
<rect x="75.75" y="132.75" width="29.0241" height="30.5" stroke="black" stroke-width="1.5"/>
<mask id="mask3_145_336" style="mask-type:alpha" maskUnits="userSpaceOnUse" x="78" y="136" width="24" height="24">
<rect x="78" y="136" width="24" height="24" fill="#D9D9D9"/>
</mask>
<g mask="url(#mask3_145_336)">
<path d="M92.4 146.5L91 145.1L93.6 142.5L91 139.9L92.4 138.5L95 141.1L97.6 138.5L99 139.9L96.4 142.5L99 145.1L97.6 146.5L95 143.9L92.4 146.5ZM80 147L85 138L90 147H80ZM85 157C83.9 157 82.9583 156.608 82.175 155.825C81.3917 155.042 81 154.1 81 153C81 151.883 81.3917 150.938 82.175 150.163C82.9583 149.388 83.9 149 85 149C86.1 149 87.0417 149.392 87.825 150.175C88.6083 150.958 89 151.9 89 153C89 154.1 88.6083 155.042 87.825 155.825C87.0417 156.608 86.1 157 85 157ZM85 155C85.55 155 86.0208 154.804 86.4125 154.413C86.8042 154.021 87 153.55 87 153C87 152.45 86.8042 151.979 86.4125 151.588C86.0208 151.196 85.55 151 85 151C84.45 151 83.9792 151.196 83.5875 151.588C83.1958 151.979 83 152.45 83 153C83 153.55 83.1958 154.021 83.5875 154.413C83.9792 154.804 84.45 155 85 155ZM83.4 145H86.6L85 142.125L83.4 145ZM91 157V149H99V157H91ZM93 155H97V151H93V155Z" fill="#1C1B1F"/>
</g>
</svg>
