<svg width="25" height="25" viewBox="0 0 25 25" fill="none" xmlns="http://www.w3.org/2000/svg">
<mask id="mask0_102_349" style="mask-type:alpha" maskUnits="userSpaceOnUse" x="-3" y="-3" width="31" height="31">
<rect x="-2.5" y="-2.5" width="30" height="30" fill="#D9D9D9"/>
</mask>
<g mask="url(#mask0_102_349)">
<path d="M4.8125 18.875C5.875 18.0625 7.0625 17.4219 8.375 16.9531C9.6875 16.4844 11.0625 16.25 12.5 16.25C13.9375 16.25 15.3125 16.4844 16.625 16.9531C17.9375 17.4219 19.125 18.0625 20.1875 18.875C20.9167 18.0208 21.4844 17.0521 21.8906 15.9688C22.2969 14.8854 22.5 13.7292 22.5 12.5C22.5 9.72917 21.526 7.36979 19.5781 5.42188C17.6302 3.47396 15.2708 2.5 12.5 2.5C9.72917 2.5 7.36979 3.47396 5.42188 5.42188C3.47396 7.36979 2.5 9.72917 2.5 12.5C2.5 13.7292 2.70312 14.8854 3.10938 15.9688C3.51562 17.0521 4.08333 18.0208 4.8125 18.875ZM12.5 13.75C11.2708 13.75 10.2344 13.3281 9.39062 12.4844C8.54688 11.6406 8.125 10.6042 8.125 9.375C8.125 8.14583 8.54688 7.10938 9.39062 6.26563C10.2344 5.42188 11.2708 5 12.5 5C13.7292 5 14.7656 5.42188 15.6094 6.26563C16.4531 7.10938 16.875 8.14583 16.875 9.375C16.875 10.6042 16.4531 11.6406 15.6094 12.4844C14.7656 13.3281 13.7292 13.75 12.5 13.75ZM12.5 25C10.7708 25 9.14583 24.6719 7.625 24.0156C6.10417 23.3594 4.78125 22.4688 3.65625 21.3438C2.53125 20.2188 1.64063 18.8958 0.984375 17.375C0.328125 15.8542 0 14.2292 0 12.5C0 10.7708 0.328125 9.14583 0.984375 7.625C1.64063 6.10417 2.53125 4.78125 3.65625 3.65625C4.78125 2.53125 6.10417 1.64063 7.625 0.984375C9.14583 0.328125 10.7708 0 12.5 0C14.2292 0 15.8542 0.328125 17.375 0.984375C18.8958 1.64063 20.2188 2.53125 21.3438 3.65625C22.4688 4.78125 23.3594 6.10417 24.0156 7.625C24.6719 9.14583 25 10.7708 25 12.5C25 14.2292 24.6719 15.8542 24.0156 17.375C23.3594 18.8958 22.4688 20.2188 21.3438 21.3438C20.2188 22.4688 18.8958 23.3594 17.375 24.0156C15.8542 24.6719 14.2292 25 12.5 25ZM12.5 22.5C13.6042 22.5 14.6458 22.3385 15.625 22.0156C16.6042 21.6927 17.5 21.2292 18.3125 20.625C17.5 20.0208 16.6042 19.5573 15.625 19.2344C14.6458 18.9115 13.6042 18.75 12.5 18.75C11.3958 18.75 10.3542 18.9115 9.375 19.2344C8.39583 19.5573 7.5 20.0208 6.6875 20.625C7.5 21.2292 8.39583 21.6927 9.375 22.0156C10.3542 22.3385 11.3958 22.5 12.5 22.5ZM12.5 11.25C13.0417 11.25 13.4896 11.0729 13.8438 10.7188C14.1979 10.3646 14.375 9.91667 14.375 9.375C14.375 8.83333 14.1979 8.38542 13.8438 8.03125C13.4896 7.67708 13.0417 7.5 12.5 7.5C11.9583 7.5 11.5104 7.67708 11.1562 8.03125C10.8021 8.38542 10.625 8.83333 10.625 9.375C10.625 9.91667 10.8021 10.3646 11.1562 10.7188C11.5104 11.0729 11.9583 11.25 12.5 11.25Z" fill="white"/>
</g>
</svg>
