<svg width="20" height="20" viewBox="0 0 20 20" fill="none" xmlns="http://www.w3.org/2000/svg">
<g opacity="0.8">
<path d="M13.3835 17.955C13.6179 17.7206 13.7495 17.4027 13.7495 17.0713C13.7495 16.7398 13.6179 16.4219 13.3835 16.1875L7.19603 10L13.3835 3.81252C13.6112 3.57676 13.7372 3.26101 13.7344 2.93326C13.7315 2.60552 13.6001 2.292 13.3683 2.06024C13.1365 1.82848 12.823 1.69702 12.4953 1.69418C12.1675 1.69133 11.8518 1.81732 11.616 2.04502L4.54478 9.11626C4.31044 9.35067 4.17879 9.66855 4.17879 10C4.17879 10.3315 4.31044 10.6493 4.54478 10.8838L11.616 17.955C11.8504 18.1893 12.1683 18.321 12.4998 18.321C12.8312 18.321 13.1491 18.1893 13.3835 17.955Z" fill="white"/>
</g>
</svg>
