<svg width="93" height="174" viewBox="0 0 93 174" fill="none" xmlns="http://www.w3.org/2000/svg">
<rect x="0.75" y="70.75" width="29.0241" height="30.5" stroke="black" stroke-width="1.5"/>
<mask id="mask0_145_371" style="mask-type:alpha" maskUnits="userSpaceOnUse" x="3" y="73" width="24" height="24">
<rect x="3" y="73" width="24" height="24" fill="#D9D9D9"/>
</mask>
<g mask="url(#mask0_145_371)">
<path d="M8 94C7.45 94 6.97917 93.8042 6.5875 93.4125C6.19583 93.0208 6 92.55 6 92V78C6 77.45 6.19583 76.9792 6.5875 76.5875C6.97917 76.1958 7.45 76 8 76H22C22.55 76 23.0208 76.1958 23.4125 76.5875C23.8042 76.9792 24 77.45 24 78V86.35C23.6833 86.2333 23.3583 86.1458 23.025 86.0875C22.6917 86.0292 22.35 86 22 86V78H8V92H16C16 92.35 16.0292 92.6917 16.0875 93.025C16.1458 93.3583 16.2333 93.6833 16.35 94H8ZM22 96L20.6 94.6L22.175 93H18V91H22.175L20.6 89.4L22 88L26 92L22 96ZM14 90H16V86H20V84H16V80H14V84H10V86H14V90Z" fill="#1C1B1F"/>
</g>
<rect x="62.75" y="70.75" width="29.0241" height="30.5" stroke="black" stroke-width="1.5"/>
<mask id="mask1_145_371" style="mask-type:alpha" maskUnits="userSpaceOnUse" x="65" y="74" width="24" height="24">
<rect x="65" y="74" width="24" height="24" fill="#D9D9D9"/>
</mask>
<g mask="url(#mask1_145_371)">
<path d="M79.4 84.5L78 83.1L80.6 80.5L78 77.9L79.4 76.5L82 79.1L84.6 76.5L86 77.9L83.4 80.5L86 83.1L84.6 84.5L82 81.9L79.4 84.5ZM67 85L72 76L77 85H67ZM72 95C70.9 95 69.9583 94.6083 69.175 93.825C68.3917 93.0417 68 92.1 68 91C68 89.8833 68.3917 88.9375 69.175 88.1625C69.9583 87.3875 70.9 87 72 87C73.1 87 74.0417 87.3917 74.825 88.175C75.6083 88.9583 76 89.9 76 91C76 92.1 75.6083 93.0417 74.825 93.825C74.0417 94.6083 73.1 95 72 95ZM72 93C72.55 93 73.0208 92.8042 73.4125 92.4125C73.8042 92.0208 74 91.55 74 91C74 90.45 73.8042 89.9792 73.4125 89.5875C73.0208 89.1958 72.55 89 72 89C71.45 89 70.9792 89.1958 70.5875 89.5875C70.1958 89.9792 70 90.45 70 91C70 91.55 70.1958 92.0208 70.5875 92.4125C70.9792 92.8042 71.45 93 72 93ZM70.4 83H73.6L72 80.125L70.4 83ZM78 95V87H86V95H78ZM80 93H84V89H80V93Z" fill="#1C1B1F"/>
</g>
<rect x="0.75" y="0.75" width="29.0241" height="30.5" stroke="black" stroke-width="1.5"/>
<mask id="mask2_145_371" style="mask-type:alpha" maskUnits="userSpaceOnUse" x="3" y="3" width="24" height="24">
<rect x="3" y="3" width="24" height="24" fill="#D9D9D9"/>
</mask>
<g mask="url(#mask2_145_371)">
<path d="M8 24C7.45 24 6.97917 23.8042 6.5875 23.4125C6.19583 23.0208 6 22.55 6 22V8C6 7.45 6.19583 6.97917 6.5875 6.5875C6.97917 6.19583 7.45 6 8 6H22C22.55 6 23.0208 6.19583 23.4125 6.5875C23.8042 6.97917 24 7.45 24 8V16.35C23.6833 16.2333 23.3583 16.1458 23.025 16.0875C22.6917 16.0292 22.35 16 22 16V8H8V22H16C16 22.35 16.0292 22.6917 16.0875 23.025C16.1458 23.3583 16.2333 23.6833 16.35 24H8ZM22 26L20.6 24.6L22.175 23H18V21H22.175L20.6 19.4L22 18L26 22L22 26ZM14 20H16V16H20V14H16V10H14V14H10V16H14V20Z" fill="#1C1B1F"/>
</g>
<rect x="62.75" y="0.75" width="29.0241" height="30.5" stroke="black" stroke-width="1.5"/>
<mask id="mask3_145_371" style="mask-type:alpha" maskUnits="userSpaceOnUse" x="65" y="4" width="24" height="24">
<rect x="65" y="4" width="24" height="24" fill="#D9D9D9"/>
</mask>
<g mask="url(#mask3_145_371)">
<path d="M79.4 14.5L78 13.1L80.6 10.5L78 7.9L79.4 6.5L82 9.1L84.6 6.5L86 7.9L83.4 10.5L86 13.1L84.6 14.5L82 11.9L79.4 14.5ZM67 15L72 6L77 15H67ZM72 25C70.9 25 69.9583 24.6083 69.175 23.825C68.3917 23.0417 68 22.1 68 21C68 19.8833 68.3917 18.9375 69.175 18.1625C69.9583 17.3875 70.9 17 72 17C73.1 17 74.0417 17.3917 74.825 18.175C75.6083 18.9583 76 19.9 76 21C76 22.1 75.6083 23.0417 74.825 23.825C74.0417 24.6083 73.1 25 72 25ZM72 23C72.55 23 73.0208 22.8042 73.4125 22.4125C73.8042 22.0208 74 21.55 74 21C74 20.45 73.8042 19.9792 73.4125 19.5875C73.0208 19.1958 72.55 19 72 19C71.45 19 70.9792 19.1958 70.5875 19.5875C70.1958 19.9792 70 20.45 70 21C70 21.55 70.1958 22.0208 70.5875 22.4125C70.9792 22.8042 71.45 23 72 23ZM70.4 13H73.6L72 10.125L70.4 13ZM78 25V17H86V25H78ZM80 23H84V19H80V23Z" fill="#1C1B1F"/>
</g>
<rect x="0.75" y="142.75" width="29.0241" height="30.5" stroke="black" stroke-width="1.5"/>
<mask id="mask4_145_371" style="mask-type:alpha" maskUnits="userSpaceOnUse" x="3" y="145" width="24" height="24">
<rect x="3" y="145" width="24" height="24" fill="#D9D9D9"/>
</mask>
<g mask="url(#mask4_145_371)">
<path d="M8 166C7.45 166 6.97917 165.804 6.5875 165.413C6.19583 165.021 6 164.55 6 164V150C6 149.45 6.19583 148.979 6.5875 148.588C6.97917 148.196 7.45 148 8 148H22C22.55 148 23.0208 148.196 23.4125 148.588C23.8042 148.979 24 149.45 24 150V158.35C23.6833 158.233 23.3583 158.146 23.025 158.088C22.6917 158.029 22.35 158 22 158V150H8V164H16C16 164.35 16.0292 164.692 16.0875 165.025C16.1458 165.358 16.2333 165.683 16.35 166H8ZM22 168L20.6 166.6L22.175 165H18V163H22.175L20.6 161.4L22 160L26 164L22 168ZM14 162H16V158H20V156H16V152H14V156H10V158H14V162Z" fill="#1C1B1F"/>
</g>
<rect x="62.75" y="142.75" width="29.0241" height="30.5" stroke="black" stroke-width="1.5"/>
<mask id="mask5_145_371" style="mask-type:alpha" maskUnits="userSpaceOnUse" x="65" y="146" width="24" height="24">
<rect x="65" y="146" width="24" height="24" fill="#D9D9D9"/>
</mask>
<g mask="url(#mask5_145_371)">
<path d="M79.4 156.5L78 155.1L80.6 152.5L78 149.9L79.4 148.5L82 151.1L84.6 148.5L86 149.9L83.4 152.5L86 155.1L84.6 156.5L82 153.9L79.4 156.5ZM67 157L72 148L77 157H67ZM72 167C70.9 167 69.9583 166.608 69.175 165.825C68.3917 165.042 68 164.1 68 163C68 161.883 68.3917 160.938 69.175 160.163C69.9583 159.388 70.9 159 72 159C73.1 159 74.0417 159.392 74.825 160.175C75.6083 160.958 76 161.9 76 163C76 164.1 75.6083 165.042 74.825 165.825C74.0417 166.608 73.1 167 72 167ZM72 165C72.55 165 73.0208 164.804 73.4125 164.413C73.8042 164.021 74 163.55 74 163C74 162.45 73.8042 161.979 73.4125 161.588C73.0208 161.196 72.55 161 72 161C71.45 161 70.9792 161.196 70.5875 161.588C70.1958 161.979 70 162.45 70 163C70 163.55 70.1958 164.021 70.5875 164.413C70.9792 164.804 71.45 165 72 165ZM70.4 155H73.6L72 152.125L70.4 155ZM78 167V159H86V167H78ZM80 165H84V161H80V165Z" fill="#1C1B1F"/>
</g>
</svg>
