<svg width="25" height="20" viewBox="0 0 25 20" fill="none" xmlns="http://www.w3.org/2000/svg">
<mask id="mask0_102_372" style="mask-type:alpha" maskUnits="userSpaceOnUse" x="-3" y="-3" width="31" height="31">
<rect x="-2.46802" y="-2.08614" width="30.0417" height="30.0417" fill="#D9D9D9"/>
</mask>
<g mask="url(#mask0_102_372)">
<path d="M2.5 19.6901C1.8125 19.6901 1.22396 19.4491 0.734375 18.9671C0.244792 18.4851 0 17.9057 0 17.2288V2.46126C0 1.78442 0.244792 1.20499 0.734375 0.722996C1.22396 0.240999 1.8125 0 2.5 0H10L12.5 2.46126H22.5C23.1875 2.46126 23.776 2.70226 24.2656 3.18426C24.7552 3.66626 25 4.24568 25 4.92253V17.2288C25 17.9057 24.7552 18.4851 24.2656 18.9671C23.776 19.4491 23.1875 19.6901 22.5 19.6901H2.5ZM2.5 2.46126V17.2288H22.5V4.92253H11.4687L8.96875 2.46126H2.5Z" fill="white"/>
</g>
</svg>
