<svg width="150" height="295" viewBox="0 0 150 295" fill="none" xmlns="http://www.w3.org/2000/svg">
<rect x="0.75" y="0.75" width="46.1939" height="48.5" stroke="black" stroke-width="1.5"/>
<mask id="mask0_163_314" style="mask-type:alpha" maskUnits="userSpaceOnUse" x="4" y="4" width="39" height="39">
<rect x="4.6875" y="4.6875" width="37.5" height="37.5" fill="#D9D9D9"/>
</mask>
<g mask="url(#mask0_163_314)">
<path d="M12.5 37.5C11.6406 37.5 10.9049 37.194 10.293 36.582C9.68099 35.9701 9.375 35.2344 9.375 34.375V12.5C9.375 11.6406 9.68099 10.9049 10.293 10.293C10.9049 9.68099 11.6406 9.375 12.5 9.375H34.375C35.2344 9.375 35.9701 9.68099 36.582 10.293C37.194 10.9049 37.5 11.6406 37.5 12.5V25.5469C37.0052 25.3646 36.4974 25.2279 35.9766 25.1367C35.4557 25.0456 34.9219 25 34.375 25V12.5H12.5V34.375H25C25 34.9219 25.0456 35.4557 25.1367 35.9766C25.2279 36.4974 25.3646 37.0052 25.5469 37.5H12.5ZM34.375 40.625L32.1875 38.4375L34.6484 35.9375H28.125V32.8125H34.6484L32.1875 30.3125L34.375 28.125L40.625 34.375L34.375 40.625ZM21.875 31.25H25V25H31.25V21.875H25V15.625H21.875V21.875H15.625V25H21.875V31.25Z" fill="#1C1B1F"/>
</g>
<rect x="97.625" y="0.75" width="46.1939" height="48.5" stroke="black" stroke-width="1.5"/>
<mask id="mask1_163_314" style="mask-type:alpha" maskUnits="userSpaceOnUse" x="101" y="6" width="39" height="38">
<rect x="101.562" y="6.25" width="37.5" height="37.5" fill="#D9D9D9"/>
</mask>
<g mask="url(#mask1_163_314)">
<path d="M124.062 22.6562L121.875 20.4688L125.938 16.4062L121.875 12.3438L124.062 10.1562L128.125 14.2188L132.188 10.1562L134.375 12.3438L130.312 16.4062L134.375 20.4688L132.188 22.6562L128.125 18.5938L124.062 22.6562ZM104.688 23.4375L112.5 9.375L120.312 23.4375H104.688ZM112.5 39.0625C110.781 39.0625 109.31 38.4505 108.086 37.2266C106.862 36.0026 106.25 34.5312 106.25 32.8125C106.25 31.0677 106.862 29.5898 108.086 28.3789C109.31 27.168 110.781 26.5625 112.5 26.5625C114.219 26.5625 115.69 27.1745 116.914 28.3984C118.138 29.6224 118.75 31.0938 118.75 32.8125C118.75 34.5312 118.138 36.0026 116.914 37.2266C115.69 38.4505 114.219 39.0625 112.5 39.0625ZM112.5 35.9375C113.359 35.9375 114.095 35.6315 114.707 35.0195C115.319 34.4076 115.625 33.6719 115.625 32.8125C115.625 31.9531 115.319 31.2174 114.707 30.6055C114.095 29.9935 113.359 29.6875 112.5 29.6875C111.641 29.6875 110.905 29.9935 110.293 30.6055C109.681 31.2174 109.375 31.9531 109.375 32.8125C109.375 33.6719 109.681 34.4076 110.293 35.0195C110.905 35.6315 111.641 35.9375 112.5 35.9375ZM110 20.3125H115L112.5 15.8203L110 20.3125ZM121.875 39.0625V26.5625H134.375V39.0625H121.875ZM125 35.9375H131.25V29.6875H125V35.9375Z" fill="#1C1B1F"/>
</g>
<rect x="0.75" y="83.75" width="46.1939" height="48.5" stroke="black" stroke-width="1.5"/>
<mask id="mask2_163_314" style="mask-type:alpha" maskUnits="userSpaceOnUse" x="4" y="87" width="39" height="39">
<rect x="4.6875" y="87.6875" width="37.5" height="37.5" fill="#D9D9D9"/>
</mask>
<g mask="url(#mask2_163_314)">
<path d="M12.5 120.5C11.6406 120.5 10.9049 120.194 10.293 119.582C9.68099 118.97 9.375 118.234 9.375 117.375V95.5C9.375 94.6406 9.68099 93.9049 10.293 93.293C10.9049 92.681 11.6406 92.375 12.5 92.375H34.375C35.2344 92.375 35.9701 92.681 36.582 93.293C37.194 93.9049 37.5 94.6406 37.5 95.5V108.547C37.0052 108.365 36.4974 108.228 35.9766 108.137C35.4557 108.046 34.9219 108 34.375 108V95.5H12.5V117.375H25C25 117.922 25.0456 118.456 25.1367 118.977C25.2279 119.497 25.3646 120.005 25.5469 120.5H12.5ZM34.375 123.625L32.1875 121.438L34.6484 118.938H28.125V115.812H34.6484L32.1875 113.312L34.375 111.125L40.625 117.375L34.375 123.625ZM21.875 114.25H25V108H31.25V104.875H25V98.625H21.875V104.875H15.625V108H21.875V114.25Z" fill="#1C1B1F"/>
</g>
<rect x="97.625" y="83.75" width="46.1939" height="48.5" stroke="black" stroke-width="1.5"/>
<mask id="mask3_163_314" style="mask-type:alpha" maskUnits="userSpaceOnUse" x="101" y="89" width="39" height="38">
<rect x="101.562" y="89.25" width="37.5" height="37.5" fill="#D9D9D9"/>
</mask>
<g mask="url(#mask3_163_314)">
<path d="M124.062 105.656L121.875 103.469L125.938 99.4062L121.875 95.3438L124.062 93.1562L128.125 97.2188L132.188 93.1562L134.375 95.3438L130.312 99.4062L134.375 103.469L132.188 105.656L128.125 101.594L124.062 105.656ZM104.688 106.438L112.5 92.375L120.312 106.438H104.688ZM112.5 122.062C110.781 122.062 109.31 121.451 108.086 120.227C106.862 119.003 106.25 117.531 106.25 115.812C106.25 114.068 106.862 112.59 108.086 111.379C109.31 110.168 110.781 109.562 112.5 109.562C114.219 109.562 115.69 110.174 116.914 111.398C118.138 112.622 118.75 114.094 118.75 115.812C118.75 117.531 118.138 119.003 116.914 120.227C115.69 121.451 114.219 122.062 112.5 122.062ZM112.5 118.938C113.359 118.938 114.095 118.632 114.707 118.02C115.319 117.408 115.625 116.672 115.625 115.812C115.625 114.953 115.319 114.217 114.707 113.605C114.095 112.993 113.359 112.688 112.5 112.688C111.641 112.688 110.905 112.993 110.293 113.605C109.681 114.217 109.375 114.953 109.375 115.812C109.375 116.672 109.681 117.408 110.293 118.02C110.905 118.632 111.641 118.938 112.5 118.938ZM110 103.312H115L112.5 98.8203L110 103.312ZM121.875 122.062V109.562H134.375V122.062H121.875ZM125 118.938H131.25V112.688H125V118.938Z" fill="#1C1B1F"/>
</g>
<rect x="5.75" y="164.75" width="46.1939" height="48.5" stroke="black" stroke-width="1.5"/>
<mask id="mask4_163_314" style="mask-type:alpha" maskUnits="userSpaceOnUse" x="9" y="168" width="39" height="39">
<rect x="9.6875" y="168.688" width="37.5" height="37.5" fill="#D9D9D9"/>
</mask>
<g mask="url(#mask4_163_314)">
<path d="M17.5 201.5C16.6406 201.5 15.9049 201.194 15.293 200.582C14.681 199.97 14.375 199.234 14.375 198.375V176.5C14.375 175.641 14.681 174.905 15.293 174.293C15.9049 173.681 16.6406 173.375 17.5 173.375H39.375C40.2344 173.375 40.9701 173.681 41.582 174.293C42.194 174.905 42.5 175.641 42.5 176.5V189.547C42.0052 189.365 41.4974 189.228 40.9766 189.137C40.4557 189.046 39.9219 189 39.375 189V176.5H17.5V198.375H30C30 198.922 30.0456 199.456 30.1367 199.977C30.2279 200.497 30.3646 201.005 30.5469 201.5H17.5ZM39.375 204.625L37.1875 202.438L39.6484 199.938H33.125V196.812H39.6484L37.1875 194.312L39.375 192.125L45.625 198.375L39.375 204.625ZM26.875 195.25H30V189H36.25V185.875H30V179.625H26.875V185.875H20.625V189H26.875V195.25Z" fill="#1C1B1F"/>
</g>
<rect x="102.625" y="164.75" width="46.1939" height="48.5" stroke="black" stroke-width="1.5"/>
<mask id="mask5_163_314" style="mask-type:alpha" maskUnits="userSpaceOnUse" x="106" y="170" width="39" height="38">
<rect x="106.562" y="170.25" width="37.5" height="37.5" fill="#D9D9D9"/>
</mask>
<g mask="url(#mask5_163_314)">
<path d="M129.062 186.656L126.875 184.469L130.938 180.406L126.875 176.344L129.062 174.156L133.125 178.219L137.188 174.156L139.375 176.344L135.312 180.406L139.375 184.469L137.188 186.656L133.125 182.594L129.062 186.656ZM109.688 187.438L117.5 173.375L125.312 187.438H109.688ZM117.5 203.062C115.781 203.062 114.31 202.451 113.086 201.227C111.862 200.003 111.25 198.531 111.25 196.812C111.25 195.068 111.862 193.59 113.086 192.379C114.31 191.168 115.781 190.562 117.5 190.562C119.219 190.562 120.69 191.174 121.914 192.398C123.138 193.622 123.75 195.094 123.75 196.812C123.75 198.531 123.138 200.003 121.914 201.227C120.69 202.451 119.219 203.062 117.5 203.062ZM117.5 199.938C118.359 199.938 119.095 199.632 119.707 199.02C120.319 198.408 120.625 197.672 120.625 196.812C120.625 195.953 120.319 195.217 119.707 194.605C119.095 193.993 118.359 193.688 117.5 193.688C116.641 193.688 115.905 193.993 115.293 194.605C114.681 195.217 114.375 195.953 114.375 196.812C114.375 197.672 114.681 198.408 115.293 199.02C115.905 199.632 116.641 199.938 117.5 199.938ZM115 184.312H120L117.5 179.82L115 184.312ZM126.875 203.062V190.562H139.375V203.062H126.875ZM130 199.938H136.25V193.688H130V199.938Z" fill="#1C1B1F"/>
</g>
<rect x="5.75" y="252.75" width="46.1939" height="41.5" stroke="black" stroke-width="1.5"/>
<mask id="mask6_163_314" style="mask-type:alpha" maskUnits="userSpaceOnUse" x="9" y="256" width="39" height="33">
<rect x="9.6875" y="256.031" width="37.5" height="32.25" fill="#D9D9D9"/>
</mask>
<g mask="url(#mask6_163_314)">
<path d="M17.5 284.25C16.6406 284.25 15.9049 283.987 15.293 283.461C14.681 282.934 14.375 282.302 14.375 281.562V262.75C14.375 262.011 14.681 261.378 15.293 260.852C15.9049 260.326 16.6406 260.062 17.5 260.062H39.375C40.2344 260.062 40.9701 260.326 41.582 260.852C42.194 261.378 42.5 262.011 42.5 262.75V273.97C42.0052 273.814 41.4974 273.696 40.9766 273.618C40.4557 273.539 39.9219 273.5 39.375 273.5V262.75H17.5V281.562H30C30 282.033 30.0456 282.492 30.1367 282.94C30.2279 283.388 30.3646 283.824 30.5469 284.25H17.5ZM39.375 286.938L37.1875 285.056L39.6484 282.906H33.125V280.219H39.6484L37.1875 278.069L39.375 276.188L45.625 281.562L39.375 286.938ZM26.875 278.875H30V273.5H36.25V270.812H30V265.438H26.875V270.812H20.625V273.5H26.875V278.875Z" fill="#1C1B1F"/>
</g>
<rect x="102.625" y="252.75" width="46.1939" height="41.5" stroke="black" stroke-width="1.5"/>
<mask id="mask7_163_314" style="mask-type:alpha" maskUnits="userSpaceOnUse" x="106" y="257" width="39" height="33">
<rect x="106.562" y="257.375" width="37.5" height="32.25" fill="#D9D9D9"/>
</mask>
<g mask="url(#mask7_163_314)">
<path d="M129.062 271.484L126.875 269.603L130.938 266.109L126.875 262.616L129.062 260.734L133.125 264.228L137.188 260.734L139.375 262.616L135.312 266.109L139.375 269.603L137.188 271.484L133.125 267.991L129.062 271.484ZM109.688 272.156L117.5 260.062L125.312 272.156H109.688ZM117.5 285.594C115.781 285.594 114.31 285.067 113.086 284.015C111.862 282.962 111.25 281.697 111.25 280.219C111.25 278.718 111.862 277.447 113.086 276.406C114.31 275.364 115.781 274.844 117.5 274.844C119.219 274.844 120.69 275.37 121.914 276.423C123.138 277.475 123.75 278.741 123.75 280.219C123.75 281.697 123.138 282.962 121.914 284.015C120.69 285.067 119.219 285.594 117.5 285.594ZM117.5 282.906C118.359 282.906 119.095 282.643 119.707 282.117C120.319 281.59 120.625 280.958 120.625 280.219C120.625 279.48 120.319 278.847 119.707 278.321C119.095 277.794 118.359 277.531 117.5 277.531C116.641 277.531 115.905 277.794 115.293 278.321C114.681 278.847 114.375 279.48 114.375 280.219C114.375 280.958 114.681 281.59 115.293 282.117C115.905 282.643 116.641 282.906 117.5 282.906ZM115 269.469H120L117.5 265.605L115 269.469ZM126.875 285.594V274.844H139.375V285.594H126.875ZM130 282.906H136.25V277.531H130V282.906Z" fill="#1C1B1F"/>
</g>
</svg>
