<svg width="24" height="24" viewBox="0 0 24 24" fill="none" xmlns="http://www.w3.org/2000/svg">
<g opacity="0.8">
<path d="M21.5462 7.9395C21.2649 7.65829 20.8834 7.50032 20.4857 7.50032C20.0879 7.50032 19.7065 7.65829 19.4252 7.9395L12.0002 15.3645L4.57519 7.9395C4.29229 7.66626 3.91338 7.51507 3.52009 7.51849C3.12679 7.52191 2.75058 7.67966 2.47246 7.95777C2.19435 8.23588 2.0366 8.6121 2.03318 9.0054C2.02977 9.39869 2.18096 9.7776 2.45419 10.0605L10.9397 18.546C11.221 18.8272 11.6024 18.9852 12.0002 18.9852C12.3979 18.9852 12.7794 18.8272 13.0607 18.546L21.5462 10.0605C21.8274 9.77921 21.9854 9.39775 21.9854 9C21.9854 8.60225 21.8274 8.22079 21.5462 7.9395Z" fill="#05FF00"/>
</g>
</svg>
